<svg width="12" height="14" viewBox="0 0 12 14" fill="none" xmlns="http://www.w3.org/2000/svg">
<path d="M5.99935 0.333008C5.29211 0.333008 4.61383 0.613959 4.11373 1.11406C3.61363 1.61415 3.33268 2.29243 3.33268 2.99967C3.33268 3.70692 3.61363 4.3852 4.11373 4.88529C4.61383 5.38539 5.29211 5.66634 5.99935 5.66634C6.70659 5.66634 7.38487 5.38539 7.88497 4.88529C8.38506 4.3852 8.66602 3.70692 8.66602 2.99967C8.66602 2.29243 8.38506 1.61415 7.88497 1.11406C7.38487 0.613959 6.70659 0.333008 5.99935 0.333008ZM4.66602 2.99967C4.66602 2.64605 4.80649 2.30691 5.05654 2.05687C5.30659 1.80682 5.64573 1.66634 5.99935 1.66634C6.35297 1.66634 6.69211 1.80682 6.94216 2.05687C7.19221 2.30691 7.33268 2.64605 7.33268 2.99967C7.33268 3.3533 7.19221 3.69243 6.94216 3.94248C6.69211 4.19253 6.35297 4.33301 5.99935 4.33301C5.64573 4.33301 5.30659 4.19253 5.05654 3.94248C4.80649 3.69243 4.66602 3.3533 4.66602 2.99967ZM9.33268 6.99967H2.66602C2.13558 6.99967 1.62687 7.21039 1.2518 7.58546C0.876729 7.96053 0.666016 8.46924 0.666016 8.99967C0.666016 10.4877 1.27802 11.6797 2.28202 12.4863C3.27002 13.2797 4.59535 13.6663 5.99935 13.6663C7.40335 13.6663 8.72868 13.2797 9.71668 12.4863C10.7193 11.6797 11.3327 10.4877 11.3327 8.99967C11.3327 8.46924 11.122 7.96053 10.7469 7.58546C10.3718 7.21039 9.86312 6.99967 9.33268 6.99967ZM2.66602 8.33301H9.33268C9.50949 8.33301 9.67906 8.40324 9.80409 8.52827C9.92911 8.65329 9.99935 8.82286 9.99935 8.99967C9.99935 10.089 9.56602 10.897 8.88202 11.4463C8.18068 12.009 7.17268 12.333 5.99935 12.333C4.82602 12.333 3.81802 12.009 3.11668 11.4463C2.43268 10.897 1.99935 10.089 1.99935 8.99967C1.99935 8.82286 2.06959 8.65329 2.19461 8.52827C2.31964 8.40324 2.4892 8.33301 2.66602 8.33301Z" fill="white"/>
</svg>
