<svg width="189" height="16" viewBox="0 0 189 16" fill="none" xmlns="http://www.w3.org/2000/svg">
<g clip-path="url(#clip0_92_2073)">
<path d="M43.4851 0.171387H27.252V3.36926H43.4851V0.171387Z" fill="white"/>
<path d="M43.4851 6.43066H27.252V9.62854H43.4851V6.43066Z" fill="white"/>
<path d="M43.4851 12.6914H27.252V15.8893H43.4851V12.6914Z" fill="white"/>
<path d="M115.61 0.171387H99.377V3.36926H115.61V0.171387Z" fill="white"/>
<path d="M115.61 6.43066H99.377V9.62854H115.61V6.43066Z" fill="white"/>
<path d="M115.61 12.6914H99.377V15.8893H115.61V12.6914Z" fill="white"/>
<path d="M174.338 0.171387H158.104V3.36926H174.338V0.171387Z" fill="white"/>
<path d="M174.338 6.43066H158.104V9.62854H174.338V6.43066Z" fill="white"/>
<path d="M174.338 12.6914H158.104V15.8893H174.338V12.6914Z" fill="white"/>
<path d="M46.7334 0.171387V3.36926H53.2311V15.8878H56.6214V3.36926H62.9996V0.171387H46.7334Z" fill="white"/>
<path d="M73.7213 0.0229492L80.9109 15.9623H77.1808L72.0701 4.47026L72.045 4.41416L66.9107 15.888H63.1807L70.3608 0.0229492" fill="white"/>
<path d="M90.1383 15.9999L97.3279 0.0605469H93.5978L88.4887 11.5526L88.4635 11.6087L83.3277 0.134846H79.5977L86.7778 15.9999" fill="white"/>
<path d="M118.952 0.171387V3.36926H130.478C130.478 3.36926 131.894 3.42082 131.894 4.81278C131.914 5.18015 131.786 5.54089 131.537 5.81954C131.288 6.09818 130.937 6.27316 130.557 6.30785L118.95 6.43067V9.62855H123.657L131.252 15.8878H136.575L129.087 9.62855H130.827C131.63 9.63675 132.419 9.43332 133.111 9.04023C134.13 8.44584 135.21 7.25857 135.21 4.89011C135.21 0.403381 132.027 0.171387 130.61 0.171387H118.952Z" fill="white"/>
<path d="M138.434 12.7094V15.8936H150.438C151.328 15.9021 152.198 15.6406 152.926 15.1461C153.869 14.4926 154.8 13.2765 154.8 11.0339C154.8 6.54565 150.809 6.46832 150.809 6.46832H144.392C144.392 6.46832 141.764 6.50774 141.764 4.99902C141.764 3.49031 143.508 3.35536 144.25 3.35536H154.805V0.171124H142.657C141.82 0.162487 141.001 0.401714 140.31 0.856493C139.366 1.48879 138.434 2.70486 138.434 5.03238C138.434 9.96946 143.609 9.59645 143.609 9.59645H149.205C149.205 9.59645 151.432 9.59645 151.432 11.0657C151.432 11.924 150.709 12.3394 150.105 12.5381C149.737 12.6548 149.352 12.7126 148.965 12.7094H138.434Z" fill="white"/>
<path d="M178.345 5.29635C178.331 5.28758 178.32 5.27584 178.313 5.26212C178.305 5.24839 178.301 5.23309 178.301 5.2175C178.304 5.17746 178.322 5.13967 178.35 5.10984L180.656 2.61705L178.474 0.248585C178.441 0.21754 178.42 0.176166 178.416 0.13183C178.415 0.117276 178.419 0.102868 178.426 0.0899006C178.432 0.0769329 178.442 0.0658102 178.455 0.0575309C178.489 0.0369097 178.529 0.0273502 178.57 0.0302374H179.46C179.513 0.0270042 179.566 0.0336976 179.617 0.0499501C179.654 0.0669944 179.687 0.0924892 179.711 0.124248L181.34 1.87709L182.968 0.124248C182.993 0.0920733 183.026 0.0665137 183.064 0.0499501C183.114 0.0333514 183.168 0.0266491 183.221 0.0302374H184.121C184.158 0.028028 184.195 0.0376114 184.226 0.0575309C184.238 0.0658102 184.249 0.0769329 184.255 0.0899006C184.262 0.102868 184.266 0.117276 184.265 0.13183C184.262 0.176351 184.241 0.217952 184.207 0.248585L182.01 2.6125L184.317 5.10529C184.345 5.13512 184.362 5.17291 184.366 5.21295C184.366 5.22859 184.362 5.24399 184.354 5.25776C184.347 5.27152 184.336 5.28322 184.322 5.2918C184.29 5.31366 184.251 5.32436 184.212 5.32212H183.322C183.274 5.32416 183.225 5.31905 183.179 5.30696C183.141 5.29281 183.107 5.26865 183.083 5.23721L181.331 3.35245L179.587 5.23721C179.563 5.26826 179.53 5.29236 179.493 5.30696C179.446 5.31904 179.397 5.32415 179.348 5.32212H178.449C178.412 5.32434 178.376 5.31532 178.345 5.29635Z" fill="white"/>
<path d="M23.0453 5.17805e-05H13.5583L12.3553 1.6043L11.1508 -0.00146484H1.66373L0 1.8181V13.5194L2.08517 15.9758H7.42074L11.2042 11.0372C11.2042 11.0372 11.676 10.4701 12.3553 10.4701C13.0362 10.4701 13.5048 11.0387 13.5048 11.0387L17.2883 15.9758H22.6239L24.7106 13.5194V1.8181L23.0453 5.17805e-05ZM6.78858 10.323C5.21606 10.323 3.93131 8.95835 3.93131 7.27223C3.93131 5.5861 5.20977 4.21992 6.78858 4.21992C8.3674 4.21992 9.64743 5.58459 9.64743 7.27223C9.64743 8.95987 8.3674 10.323 6.78858 10.323ZM17.9205 10.323C16.348 10.323 15.0616 8.95835 15.0616 7.27071C15.0616 5.58307 16.3417 4.2184 17.9205 4.2184C19.4993 4.2184 20.7793 5.58307 20.7793 7.27071C20.7793 8.95835 19.4993 10.32 17.9205 10.32V10.323Z" fill="white"/>
<path d="M183.213 0.0258789H187.605C187.605 0.0258789 188.819 0.109276 188.819 1.72414C188.819 3.339 187.561 3.34051 187.561 3.34051H186.849L189.004 5.32232H187.32L185.138 3.32535H183.955L183.383 2.67031L184.012 2.10776L187.272 2.09715C187.37 2.07702 187.459 2.0248 187.523 1.9492C187.587 1.87359 187.622 1.77916 187.622 1.68168C187.629 1.62682 187.625 1.57111 187.609 1.518C187.593 1.46489 187.566 1.4155 187.529 1.37288C187.493 1.33026 187.448 1.29531 187.396 1.27018C187.345 1.24505 187.289 1.23029 187.232 1.22679H183.221L183.213 0.0258789Z" fill="white"/>
</g>
<defs>
<clipPath id="clip0_92_2073">
<rect width="189" height="16" fill="white"/>
</clipPath>
</defs>
</svg>
