<svg width="14" height="14" viewBox="0 0 14 14" fill="none" xmlns="http://www.w3.org/2000/svg">
<path d="M3.00063 5.66634V7.66634C3.00062 7.77004 2.97643 7.8723 2.92996 7.96501L2.08063 9.66634H11.9233L11.0726 7.96501C11.0257 7.87242 11.001 7.77014 11.0006 7.66634V5.66634C11.0006 4.60547 10.5792 3.58806 9.82906 2.83791C9.07891 2.08777 8.06149 1.66634 7.00063 1.66634C5.93976 1.66634 4.92235 2.08777 4.1722 2.83791C3.42206 3.58806 3.00063 4.60547 3.00063 5.66634ZM4.33396 10.9997H1.00063C0.886943 10.9997 0.775147 10.9706 0.675865 10.9152C0.576584 10.8598 0.493114 10.78 0.433391 10.6832C0.373667 10.5865 0.339672 10.4761 0.334638 10.3625C0.329604 10.249 0.353698 10.136 0.404629 10.0343L1.6673 7.50901V5.66634C1.6673 4.25185 2.2292 2.8953 3.22939 1.89511C4.22959 0.894911 5.58614 0.333008 7.00063 0.333008C8.41512 0.333008 9.77167 0.894911 10.7719 1.89511C11.7721 2.8953 12.334 4.25185 12.334 5.66634V7.50901L13.5966 10.0343C13.6476 10.136 13.6717 10.249 13.6666 10.3625C13.6616 10.4761 13.6276 10.5865 13.5679 10.6832C13.5081 10.78 13.4247 10.8598 13.3254 10.9152C13.2261 10.9706 13.1143 10.9997 13.0006 10.9997H9.6673C9.6673 11.7069 9.38634 12.3852 8.88625 12.8853C8.38615 13.3854 7.70787 13.6663 7.00063 13.6663C6.29339 13.6663 5.61511 13.3854 5.11501 12.8853C4.61491 12.3852 4.33396 11.7069 4.33396 10.9997ZM8.33396 10.9997H5.6673C5.6673 11.3533 5.80777 11.6924 6.05782 11.9425C6.30787 12.1925 6.64701 12.333 7.00063 12.333C7.35425 12.333 7.69339 12.1925 7.94344 11.9425C8.19349 11.6924 8.33396 11.3533 8.33396 10.9997Z" fill="white"/>
</svg>
